<?xml version="1.0" standalone="no"?>
<!DOCTYPE svg PUBLIC "-//W3C//DTD SVG 20010904//EN"
 "http://www.w3.org/TR/2001/REC-SVG-20010904/DTD/svg10.dtd">
<svg version="1.0" xmlns="http://www.w3.org/2000/svg"
 width="1280.000000pt" height="1280.000000pt" viewBox="0 0 1280.000000 1280.000000"
 preserveAspectRatio="xMidYMid meet">
<metadata>
Created by potrace 1.14, written by Peter Selinger 2001-2017
</metadata>
<g transform="translate(0.000000,1280.000000) scale(0.100000,-0.100000)"
fill="#000000" stroke="none">
<path d="M5866 12763 c-1 -1 -31 -5 -66 -8 -287 -26 -592 -137 -857 -311 -48
-32 -95 -64 -103 -71 -8 -6 -33 -27 -56 -45 -22 -18 -59 -48 -82 -67 -79 -63
-196 -182 -327 -332 -30 -34 -196 -254 -225 -298 -8 -13 -27 -40 -41 -60 -14
-20 -28 -43 -32 -51 -4 -8 -20 -35 -36 -60 -16 -25 -42 -67 -56 -95 -15 -27
-32 -57 -39 -65 -6 -8 -20 -33 -31 -55 -11 -22 -22 -42 -25 -45 -3 -3 -16 -30
-30 -60 -14 -30 -27 -57 -30 -60 -12 -12 -30 -51 -30 -65 0 -8 -4 -15 -10 -15
-5 0 -10 -8 -10 -18 0 -10 -4 -22 -9 -27 -5 -6 -32 -64 -60 -130 -29 -66 -59
-132 -67 -147 -8 -16 -13 -28 -10 -28 3 0 -4 -21 -15 -47 -11 -27 -24 -57 -29
-68 -10 -25 -22 -57 -26 -70 -1 -5 -21 -62 -44 -125 -23 -63 -43 -122 -46
-130 -9 -37 -76 -256 -81 -270 -4 -8 -7 -17 -7 -20 -40 -160 -61 -237 -68
-247 -5 -6 -21 -14 -36 -18 -29 -7 -246 -73 -272 -82 -8 -3 -21 -8 -27 -10 -7
-1 -19 -5 -25 -6 -7 -2 -20 -6 -28 -10 -19 -7 -216 -67 -350 -107 -58 -18
-118 -37 -135 -43 -16 -6 -34 -12 -40 -13 -12 -2 -100 -30 -290 -91 -294 -94
-319 -128 -361 -478 -3 -27 -7 -61 -10 -75 -2 -14 -6 -45 -9 -70 -3 -25 -7
-55 -10 -68 -2 -13 -7 -51 -10 -85 -3 -34 -8 -69 -10 -77 -5 -17 -15 -96 -20
-156 -1 -22 -5 -53 -8 -70 -4 -16 -9 -53 -12 -83 -4 -30 -8 -62 -10 -72 -2
-10 -6 -44 -10 -76 -3 -32 -7 -69 -10 -83 -2 -14 -7 -43 -9 -65 -15 -120 -27
-215 -33 -250 -3 -22 -7 -51 -8 -65 -2 -14 -7 -54 -11 -90 -4 -36 -8 -75 -8
-87 -1 -13 -3 -23 -6 -23 -3 0 -6 -21 -8 -48 -2 -26 -9 -90 -17 -142 -8 -52
-17 -122 -21 -155 -3 -33 -8 -67 -9 -75 -2 -8 -6 -44 -10 -80 -4 -36 -9 -73
-11 -84 -2 -10 -6 -44 -9 -75 -4 -31 -8 -63 -10 -71 -2 -8 -7 -44 -10 -80 -4
-36 -9 -72 -10 -81 -4 -18 -16 -111 -20 -149 -2 -14 -5 -43 -9 -65 -3 -22 -8
-62 -11 -90 -3 -27 -7 -57 -10 -65 -3 -13 -10 -67 -20 -160 -4 -37 -16 -132
-20 -160 -4 -23 -7 -51 -20 -147 -3 -21 -7 -60 -10 -88 -3 -27 -8 -61 -10 -75
-3 -14 -7 -45 -10 -70 -14 -109 -17 -136 -19 -155 -2 -11 -6 -40 -9 -65 -4
-25 -9 -67 -12 -95 -3 -27 -8 -63 -10 -80 -3 -16 -7 -46 -9 -65 -10 -81 -37
-288 -42 -320 -3 -19 -7 -53 -10 -75 -2 -22 -6 -58 -9 -80 -3 -22 -7 -56 -10
-75 -3 -19 -7 -54 -10 -76 -8 -60 -13 -103 -19 -154 -3 -25 -8 -62 -12 -82 -3
-20 -7 -54 -9 -75 -3 -21 -7 -54 -9 -73 -3 -19 -8 -57 -12 -84 -3 -27 -7 -56
-9 -65 -1 -9 -6 -45 -10 -81 -4 -36 -8 -72 -10 -80 -1 -8 -6 -42 -10 -75 -4
-33 -9 -73 -11 -90 -2 -16 -6 -48 -8 -70 -3 -22 -7 -56 -10 -75 -3 -19 -8 -55
-11 -80 -2 -25 -7 -56 -10 -70 -2 -13 -7 -52 -10 -85 -3 -33 -8 -67 -10 -75
-2 -8 -7 -44 -10 -80 -4 -36 -8 -67 -10 -70 -1 -3 -6 -36 -10 -73 -3 -37 -8
-77 -10 -87 -2 -10 -7 -45 -10 -77 -8 -66 -11 -89 -19 -153 -4 -25 -8 -61 -11
-80 -6 -53 -25 -191 -29 -225 -2 -16 -5 -30 -6 -30 -1 0 -3 -18 -5 -40 -1 -22
-6 -60 -9 -85 -7 -47 -12 -88 -21 -157 -3 -24 -7 -60 -10 -80 -2 -21 -7 -58
-10 -83 -3 -25 -8 -56 -10 -70 -3 -22 -9 -68 -20 -157 -3 -19 4 -23 58 -32 34
-6 71 -13 82 -15 11 -2 58 -11 105 -20 98 -18 127 -23 156 -30 12 -2 39 -7 60
-10 22 -4 46 -8 54 -11 8 -2 33 -7 55 -10 22 -4 49 -8 60 -10 11 -2 45 -9 75
-15 30 -6 69 -13 85 -16 17 -3 75 -14 130 -25 55 -11 118 -22 140 -25 22 -3
56 -9 75 -14 19 -5 51 -11 70 -14 19 -3 46 -8 60 -11 14 -3 50 -9 80 -15 30
-6 64 -12 75 -14 11 -2 58 -11 105 -20 98 -18 127 -23 156 -30 12 -2 39 -7 60
-10 22 -4 46 -8 54 -11 13 -3 51 -10 110 -20 19 -3 70 -12 195 -37 55 -10 113
-21 128 -23 16 -2 43 -7 60 -11 18 -4 41 -8 52 -10 11 -1 20 -3 20 -4 0 -1 9
-3 20 -4 18 -3 95 -17 165 -31 14 -3 50 -9 80 -15 30 -6 66 -12 80 -15 14 -3
41 -8 60 -11 19 -3 53 -9 75 -14 22 -5 56 -12 75 -15 51 -8 202 -36 225 -42
28 -6 61 -12 125 -23 30 -6 64 -12 75 -14 11 -2 58 -11 105 -20 47 -8 96 -17
110 -20 45 -9 464 -87 490 -92 14 -2 48 -9 75 -15 28 -6 63 -12 78 -14 15 -2
54 -9 85 -15 31 -6 68 -13 82 -16 14 -2 36 -7 50 -9 64 -13 77 -16 105 -20 17
-3 41 -8 55 -10 14 -3 36 -8 50 -10 26 -5 130 -24 165 -30 22 -4 65 -12 105
-20 31 -6 126 -25 160 -31 14 -3 86 -16 160 -31 74 -14 149 -27 165 -29 17 -2
50 -8 75 -14 45 -10 225 -44 290 -55 19 -3 71 -13 115 -21 44 -8 91 -17 105
-20 14 -2 48 -9 75 -14 28 -6 64 -12 80 -14 17 -3 64 -11 105 -19 41 -9 93
-19 115 -23 22 -4 47 -9 55 -11 14 -3 23 -4 100 -18 19 -3 46 -8 60 -11 143
-27 192 -36 235 -44 130 -24 212 -40 235 -45 14 -3 41 -8 60 -11 19 -3 42 -7
50 -9 18 -5 88 -17 115 -20 18 -1 152 25 355 71 36 8 76 17 90 20 14 2 86 18
160 34 74 16 147 31 162 34 15 2 32 7 36 10 5 3 24 7 43 10 19 2 57 10 84 16
28 6 61 14 75 16 14 3 33 7 42 10 10 3 30 7 45 10 16 2 49 9 74 15 26 6 55 12
65 14 11 2 19 4 19 5 0 1 9 3 20 5 19 3 97 19 140 29 38 9 260 56 283 61 12 2
30 6 40 9 9 3 28 7 42 10 14 2 59 12 100 21 41 9 86 19 100 21 14 3 45 10 70
15 25 6 56 13 70 15 14 3 106 23 205 45 99 22 191 42 205 45 14 2 36 7 50 10
51 12 60 14 83 19 12 2 36 8 52 12 17 4 33 6 37 5 4 -1 18 2 31 7 13 5 39 12
58 15 19 3 48 9 64 12 17 4 37 8 45 9 8 1 22 5 30 8 8 3 40 11 70 17 30 5 78
15 105 21 28 6 59 12 70 14 11 2 52 11 90 20 39 9 79 18 90 20 11 3 40 9 65
15 25 5 56 12 70 14 24 5 38 8 90 20 14 3 36 8 50 10 14 2 54 11 91 20 36 9
74 17 85 19 95 18 95 18 89 46 -11 52 -17 87 -20 121 -3 39 -23 171 -30 204
-3 12 -7 39 -9 61 -4 38 -31 224 -42 290 -3 17 -7 41 -9 55 -2 14 -11 75 -19
135 -9 61 -17 119 -20 130 -2 11 -7 47 -11 80 -3 32 -8 62 -10 65 -2 3 -6 30
-9 60 -3 30 -8 67 -11 83 -13 71 -15 85 -21 135 -3 29 -7 63 -10 75 -2 12 -7
40 -10 62 -3 22 -12 83 -20 135 -8 52 -17 111 -20 130 -2 19 -7 51 -10 70 -3
19 -8 53 -10 75 -2 21 -7 51 -9 65 -3 14 -7 39 -10 55 -2 17 -9 64 -15 105 -7
41 -13 86 -15 100 -7 55 -17 116 -21 140 -3 14 -6 32 -6 40 0 8 -5 38 -10 65
-5 28 -11 67 -13 87 -1 20 -6 55 -10 77 -13 80 -22 139 -29 201 -3 25 -8 56
-11 70 -3 14 -8 45 -11 70 -3 25 -7 54 -9 65 -9 53 -15 93 -20 130 -3 22 -8
54 -10 70 -2 17 -11 80 -20 140 -9 61 -19 124 -21 140 -2 17 -6 41 -9 55 -4
22 -10 68 -19 145 -2 11 -6 34 -9 50 -3 17 -9 50 -12 75 -3 25 -7 56 -10 70
-5 26 -11 66 -21 145 -3 28 -8 59 -10 70 -2 10 -6 37 -9 60 -3 22 -8 51 -10
65 -2 14 -7 45 -10 70 -3 25 -10 70 -15 100 -5 30 -12 77 -15 104 -4 27 -10
70 -14 95 -5 25 -9 53 -9 61 0 8 -3 26 -6 40 -6 30 -32 207 -40 270 -3 25 -8
56 -11 69 -2 14 -7 45 -10 70 -3 25 -7 55 -9 66 -2 11 -7 45 -11 75 -4 30 -9
64 -11 75 -2 11 -6 38 -9 60 -3 22 -7 49 -9 60 -6 34 -16 99 -20 130 -10 75
-25 179 -31 205 -1 3 -5 32 -9 65 -4 32 -10 68 -13 80 -2 11 -6 36 -7 55 -3
32 -19 135 -30 200 -3 14 -7 48 -11 75 -3 28 -12 91 -20 140 -20 129 -25 165
-31 210 -2 22 -9 65 -14 95 -5 30 -12 78 -16 105 -3 28 -8 62 -10 78 -2 15 -6
39 -9 55 -3 15 -8 47 -10 72 -3 25 -8 56 -11 70 -3 14 -7 41 -9 60 -3 19 -9
64 -15 100 -10 71 -18 126 -26 180 -3 19 -7 46 -9 60 -2 14 -6 43 -9 65 -4 22
-9 56 -12 75 -3 19 -8 49 -10 65 -12 93 -31 220 -38 252 -2 12 -7 48 -11 80
-3 32 -8 65 -10 73 -2 8 -6 35 -9 60 -3 25 -8 54 -10 65 -2 11 -7 45 -11 75
-4 30 -9 62 -10 71 -6 32 -14 85 -20 134 -3 28 -10 75 -15 105 -6 30 -12 71
-14 90 -3 19 -7 52 -10 73 -3 20 -9 54 -12 75 -3 20 -7 53 -10 72 -2 19 -6 46
-9 60 -3 14 -7 43 -11 65 -3 22 -10 69 -15 105 -6 35 -12 83 -14 106 -6 55
-18 85 -46 110 -36 32 -48 35 -264 49 -33 2 -85 6 -115 9 -30 2 -98 7 -150 11
-52 4 -117 8 -145 11 -27 2 -84 6 -125 9 -185 13 -218 15 -259 20 -42 4 -55
16 -368 327 -179 178 -350 349 -380 380 -67 69 -110 91 -184 94 -76 4 -156
-16 -430 -106 l-87 -28 -11 25 c-6 13 -11 28 -11 34 0 5 -8 28 -19 52 -10 23
-26 62 -36 87 -49 120 -148 314 -213 416 -33 52 -85 124 -97 134 -8 7 -15 16
-15 20 0 11 -61 79 -135 152 -53 53 -166 142 -220 175 -53 32 -155 83 -155 77
0 -4 -7 -1 -15 6 -8 7 -15 9 -15 5 0 -4 -7 -2 -15 5 -15 13 -146 48 -210 56
-22 3 -83 7 -135 8 -94 3 -94 3 -120 37 -38 52 -138 145 -205 193 -103 74
-218 124 -325 142 -41 7 -228 13 -234 7z m172 -452 c24 -7 62 -22 83 -33 l40
-20 -88 -50 c-90 -50 -158 -93 -181 -115 -7 -7 -16 -13 -20 -13 -4 0 -21 -14
-39 -30 -18 -17 -35 -30 -38 -30 -11 0 -191 -176 -242 -237 -10 -12 -27 -32
-38 -45 -49 -58 -123 -160 -169 -233 -28 -45 -57 -90 -63 -100 -21 -33 -51
-89 -53 -100 -1 -5 -7 -16 -12 -23 -11 -13 -108 -210 -108 -218 0 -3 -9 -25
-20 -50 -67 -146 -167 -456 -205 -634 -2 -8 -13 -58 -25 -110 -11 -52 -23
-104 -25 -115 -4 -16 -29 -28 -127 -58 -68 -21 -132 -40 -142 -42 -11 -3 -60
-18 -110 -34 -107 -34 -300 -94 -371 -116 -27 -8 -86 -26 -130 -41 -115 -37
-129 -39 -120 -17 4 10 11 34 17 53 43 159 250 720 277 755 5 5 12 21 16 35
12 38 136 292 153 313 8 9 12 17 8 17 -3 0 5 18 19 40 14 22 25 42 25 45 0 28
236 384 346 521 77 98 283 306 358 364 26 19 52 40 59 45 60 48 279 175 301
175 7 0 16 4 22 9 29 27 245 85 358 96 21 2 40 5 41 7 9 8 165 0 203 -11z
m900 -377 c32 -4 142 -47 142 -56 0 -5 6 -8 14 -8 30 0 165 -120 226 -200 14
-18 31 -39 38 -46 6 -7 12 -16 12 -20 0 -4 7 -15 16 -25 17 -19 44 -64 72
-119 9 -19 20 -36 25 -38 4 -2 7 -12 7 -22 0 -10 4 -20 8 -22 6 -2 93 -197 98
-218 0 -3 3 -12 7 -20 3 -8 15 -41 26 -72 l20 -57 -157 -50 c-86 -27 -204 -64
-262 -81 -58 -17 -123 -38 -145 -46 -23 -8 -43 -14 -45 -14 -3 0 -5 60 -6 133
-1 133 -10 336 -19 392 -2 17 -6 53 -10 80 -9 83 -17 130 -39 235 -16 72 -38
157 -72 269 -6 19 -4 22 7 16 7 -5 24 -10 37 -11z m-481 -122 c24 -65 79 -274
88 -330 3 -21 8 -49 10 -62 7 -31 12 -68 20 -145 4 -33 8 -75 10 -92 6 -52 17
-269 19 -385 3 -124 13 -113 -139 -154 -5 -2 -62 -19 -125 -39 -115 -37 -205
-65 -290 -90 -25 -7 -126 -39 -225 -70 -99 -31 -200 -63 -225 -70 -88 -25
-241 -75 -251 -80 -20 -13 -13 14 57 237 19 59 39 120 46 135 6 15 12 33 14
38 13 52 161 363 201 421 12 19 23 37 23 39 0 2 22 36 49 77 103 156 231 301
366 414 59 50 178 134 190 134 3 0 22 11 43 23 39 25 94 47 101 40 3 -2 11
-20 18 -41z"/>
</g>
</svg>
